<svg xmlns="http://www.w3.org/2000/svg" viewBox="0 0 200 200" width="200" height="200">
  <defs>
    <linearGradient id="g1" x1="0" y1="0" x2="1" y2="1">
      <stop offset="0%" stop-color="#4F46E5"/>
      <stop offset="100%" stop-color="#7C3AED"/>
    </linearGradient>
  </defs>
  <!-- Head -->
  <polygon points="100,36 152,62 152,120 100,146 48,120 48,62" fill="url(#g1)" opacity="0.1"/>
  <polygon points="100,36 152,62 152,120 100,146 48,120 48,62" fill="none" stroke="url(#g1)" stroke-width="2.5" stroke-linejoin="round"/>
  <!-- Inner panel -->
  <rect x="72" y="72" width="56" height="48" rx="8" fill="url(#g1)" opacity="0.06"/>
  <rect x="72" y="72" width="56" height="48" rx="8" fill="none" stroke="#6366F1" stroke-width="1.2" opacity="0.5"/>
  <!-- Eyes -->
  <rect x="84" y="82" width="10" height="14" rx="3" fill="url(#g1)"/>
  <rect x="106" y="82" width="10" height="14" rx="3" fill="url(#g1)"/>
  <!-- Processor lines -->
  <line x1="88" y1="106" x2="112" y2="106" stroke="#6366F1" stroke-width="1" opacity="0.5"/>
  <line x1="88" y1="110" x2="112" y2="110" stroke="#6366F1" stroke-width="1" opacity="0.5"/>
  <!-- Antenna -->
  <line x1="100" y1="22" x2="100" y2="48" stroke="#4F46E5" stroke-width="1.8" stroke-linecap="round" opacity="0.5"/>
  <circle cx="100" cy="18" r="4.5" fill="url(#g1)"/>
</svg>
